<?xml version="1.0" encoding="UTF-8"?>
<svg version="1.1" xmlns="http://www.w3.org/2000/svg" width="544" height="522">
<path d="M0 0 C179.52 0 359.04 0 544 0 C544 172.26 544 344.52 544 522 C364.48 522 184.96 522 0 522 C0 349.74 0 177.48 0 0 Z " fill="#00007F" transform="translate(0,0)"/>
<path d="M0 0 C11.88 0 23.76 0 36 0 C40.50052916 11.25132291 40.50052916 11.25132291 42.25146484 16.51147461 C42.64689484 17.69474335 43.04232483 18.87801208 43.44973755 20.09713745 C43.87021897 21.36551256 44.29061652 22.63391547 44.7109375 23.90234375 C45.16048403 25.25171499 45.61026816 26.6010071 46.06027222 27.95022583 C47.25600233 31.53825051 48.44776922 35.12757863 49.63838196 38.71730423 C50.37710875 40.94385586 51.11679953 43.17008492 51.85681152 45.39620972 C55.24677552 55.59453292 58.62667807 65.79616082 62 76 C62.40327515 77.21949341 62.80655029 78.43898682 63.2220459 79.69543457 C65.27723589 85.91362864 67.32640717 92.13373719 69.36407471 98.35769653 C69.94867365 100.14252564 70.53454378 101.92693895 71.12176514 103.71090698 C71.92411883 106.15091156 72.7207786 108.59269745 73.515625 111.03515625 C73.74168427 111.71973907 73.96774353 112.4043219 74.20065308 113.10964966 C75.78500793 118.01196229 76.95426614 122.95666273 78 128 C78.98742187 127.84144531 79.97484375 127.68289063 80.9921875 127.51953125 C103.72778189 124.3114762 129.04015787 129.0664637 147.61328125 142.97265625 C159.93775277 153.4413972 159.93775277 153.4413972 163 160 C159.88307091 163.17469938 156.75516454 166.33835392 153.625 169.5 C152.29082031 170.85931641 152.29082031 170.85931641 150.9296875 172.24609375 C150.07890625 173.10332031 149.228125 173.96054687 148.3515625 174.84375 C147.56604004 175.63974609 146.78051758 176.43574219 145.97119141 177.25585938 C144 179 144 179 142 179 C140.92580696 177.68775864 139.91573391 176.32275322 138.9375 174.9375 C130.90659022 164.39486535 119.0051039 157.49189838 106 155 C102.66985828 154.65200731 99.34519204 154.49832505 96 154.375 C94.69482422 154.31699219 94.69482422 154.31699219 93.36328125 154.2578125 C91.24249514 154.16459113 89.12127815 154.08125864 87 154 C87.54188965 155.58022949 87.54188965 155.58022949 88.09472656 157.19238281 C92.08968766 168.84722085 96.06841026 180.50753944 100.0369873 192.17138672 C100.97033534 194.91286736 101.90541339 197.65375254 102.84082031 200.39453125 C104.26227925 204.56218962 105.67548277 208.73256159 107.08239746 212.90515137 C107.60879294 214.46244858 108.13782691 216.01885654 108.66955566 217.57434082 C109.40925519 219.73992772 110.13937908 221.90851787 110.8671875 224.078125 C111.48762939 225.90972168 111.48762939 225.90972168 112.12060547 227.77832031 C113 231 113 231 113 236 C102.11 236 91.22 236 80 236 C79.01 233.36 78.02 230.72 77 228 C76.68417969 227.19175781 76.36835938 226.38351562 76.04296875 225.55078125 C73.80004334 219.68230517 72.05122274 213.73480032 70.375 207.6875 C66.46746125 193.6161687 61.69815348 179.82260883 57 166 C43.76220128 178.51089092 38.54141437 192.29292816 35 210 C25.1 210 15.2 210 5 210 C4.01 206.803125 3.02 203.60625 2 200.3125 C-2.43668523 186.65029295 -9.03823646 173.58126515 -21 165 C-23.1568551 170.61548072 -25.08906198 176.25680872 -26.875 182 C-27.13692139 182.83539307 -27.39884277 183.67078613 -27.66870117 184.53149414 C-28.84583757 188.288822 -30.01509448 192.04857135 -31.18359375 195.80859375 C-35.3607929 209.23633773 -39.6884235 222.61480729 -44 236 C-54.56 236 -65.12 236 -76 236 C-74.87508605 227.00068837 -74.87508605 227.00068837 -73.65234375 223.40527344 C-73.38087021 222.59441788 -73.10939667 221.78356232 -72.82969666 220.94813538 C-72.53527176 220.09384445 -72.24084686 219.23955353 -71.9375 218.359375 C-71.6299025 217.44639145 -71.32230499 216.5334079 -71.00538635 215.59275818 C-70.01023959 212.64287613 -69.00505441 209.69651926 -68 206.75 C-66.97256315 203.71052863 -65.94796877 200.67010982 -64.92372131 197.62956238 C-64.24396046 195.61172768 -63.56341089 193.5941585 -62.88206482 191.57685852 C-60.0345077 183.13710412 -57.2720552 174.67244713 -54.5625 166.1875 C-54.19189453 165.02766602 -53.82128906 163.86783203 -53.43945312 162.67285156 C-52.62410786 160.11592242 -51.81063371 157.55842594 -51 155 C-68.05068852 154.58581323 -81.67801951 156.12006858 -94.9375 168.0625 C-98.34795088 171.31863184 -101.67183795 174.65993039 -105 178 C-108.2075998 174.93700693 -111.38730537 171.84654508 -114.5625 168.75 C-115.47708984 167.87730469 -116.39167969 167.00460937 -117.33398438 166.10546875 C-118.6246582 164.83896484 -118.6246582 164.83896484 -119.94140625 163.546875 C-120.74263916 162.77182617 -121.54387207 161.99677734 -122.36938477 161.19824219 C-124 159 -124 159 -123.89306641 156.88671875 C-122.44930561 153.8365866 -120.17551216 151.60180597 -117.8125 149.25 C-117.28221191 148.72212891 -116.75192383 148.19425781 -116.20556641 147.65039062 C-110.4554927 142.15628471 -104.10406896 138.48023355 -97 135 C-95.79150391 134.38898438 -95.79150391 134.38898438 -94.55859375 133.765625 C-77.8953246 126.23092938 -58.83761516 125.51525859 -41 128 C-40.89786194 127.40895981 -40.79572388 126.81791962 -40.69049072 126.20896912 C-39.44959431 119.49688108 -37.56206113 113.17591573 -35.359375 106.72265625 C-35.0004567 105.65429535 -34.64153839 104.58593445 -34.27174377 103.48519897 C-33.50225657 101.19652124 -32.73009252 98.90874204 -31.95547485 96.62179565 C-29.90482797 90.56703763 -27.8737145 84.50572188 -25.83984375 78.4453125 C-25.429655 77.2248674 -25.01946625 76.0044223 -24.59684753 74.74699402 C-20.20266192 61.65894985 -15.93254097 48.53154144 -11.68066406 35.39672852 C-11.15832375 33.78397785 -10.63586517 32.17126549 -10.11328125 30.55859375 C-9.8642807 29.79009598 -9.61528015 29.02159821 -9.35873413 28.22981262 C-6.29629281 18.80084666 -3.14450341 9.40186744 0 0 Z " fill="#38FC14" transform="translate(251,142)"/>
<path d="M0 0 C0.99 0 1.98 0 3 0 C4.35295608 4.0337419 5.70375207 8.06819943 7.05273438 12.10327148 C7.50985465 13.46967057 7.96751771 14.83588822 8.42578125 16.2019043 C11.07418182 24.09773889 13.64991546 32.0058885 16.07519531 39.97387695 C17.50812725 44.66268144 19.00553078 49.33052372 20.5 54 C22.71267385 60.93351375 24.91466448 67.86873659 27.01953125 74.8359375 C27.78026353 77.29089028 28.57131327 79.72723122 29.38671875 82.1640625 C29.62310059 82.88352051 29.85948242 83.60297852 30.10302734 84.34423828 C30.56377954 85.74425271 31.03365691 87.14130886 31.51416016 88.53466797 C32.76052203 92.35871087 33.5531672 95.20336907 32 99 C30.06640625 100.703125 30.06640625 100.703125 27.5625 102.25 C18.10703187 108.49519507 10.76905043 115.94308616 4 125 C1.59498911 122.67257011 -0.70766933 120.34338218 -2.87890625 117.79296875 C-7.12411591 112.82849705 -11.52405676 108.53613839 -16.6875 104.5625 C-17.22181641 104.1497583 -17.75613281 103.7370166 -18.30664062 103.31176758 C-21.70027962 100.77125755 -25.16189555 98.78958094 -29 97 C-28.44560624 91.55247867 -27.45778883 86.73145438 -25.75 81.5 C-25.29668876 80.09381002 -24.84356917 78.68755825 -24.390625 77.28125 C-24.15923828 76.57097656 -23.92785156 75.86070312 -23.68945312 75.12890625 C-22.59879813 71.76116138 -21.55074357 68.38036363 -20.5 65 C-20.08355599 63.66659711 -19.66688885 62.33326388 -19.25 61 C-19.04375 60.34 -18.8375 59.68 -18.625 59 C-15.1875 48 -15.1875 48 -11.75 37 C-11.54358887 36.33943604 -11.33717773 35.67887207 -11.12451172 34.99829102 C-10.70958396 33.67061951 -10.29454565 32.34298254 -9.87939453 31.01538086 C-8.81019389 27.59570261 -7.74316776 24.17536815 -6.6796875 20.75390625 C-4.52016459 13.81263988 -2.33581268 6.88450054 0 0 Z " fill="#00037E" transform="translate(267,184)"/>
</svg>
